<svg width="24" height="24" viewBox="0 0 24 24" fill="none" xmlns="http://www.w3.org/2000/svg">
<path d="M17.9824 8.80908C17.9824 9.49944 17.4228 10.0591 16.7324 10.0591C16.0421 10.0591 15.4824 9.49944 15.4824 8.80908C15.4824 8.11873 16.0421 7.55908 16.7324 7.55908C17.4228 7.55908 17.9824 8.11873 17.9824 8.80908Z" fill="white"/>
<path d="M12.4828 8.23586C12.75 8.23738 13.0055 8.3458 13.1923 8.53694L15.0415 10.4293C15.1194 10.5091 15.1813 10.5985 15.2272 10.6937C15.5925 11.1691 15.7144 11.7691 15.596 12.3274L15.4481 12.363C14.9753 12.477 14.4785 12.4376 14.0296 12.2505C13.5679 12.0581 13.0559 12.0221 12.5718 12.1478L11.8195 12.3432C11.6757 12.3806 11.5295 12.4042 11.3828 12.4143L12.8496 11.0479L12.469 10.6584L11.408 11.7197C11.0175 12.1103 10.3843 12.1104 9.99375 11.72C9.60317 11.3295 9.60307 10.6963 9.99353 10.3057L11.7699 8.52884C11.9588 8.33984 12.2155 8.23433 12.4828 8.23586Z" fill="white"/>
<path d="M21.9149 13.7834C22.1824 13.7148 22.3436 13.4424 22.275 13.1749C22.2064 12.9074 21.934 12.7462 21.6665 12.8147L20.1187 13.2116C19.7187 13.3142 19.2995 13.316 18.8986 13.217L17.9752 12.9891C17.4307 12.8546 16.8617 12.853 16.3164 12.9844L15.3303 13.222C14.9606 13.3111 14.5722 13.2803 14.2212 13.134C13.6588 12.8997 13.0352 12.8558 12.4455 13.0089L11.6931 13.2043C11.3069 13.3046 10.8988 13.2802 10.5274 13.1345C9.92622 12.8988 9.26345 12.871 8.64472 13.0558L8.27465 13.1663C7.83995 13.2961 7.37813 13.3051 6.93867 13.1925L6.24061 13.0136C5.64757 12.8616 5.02502 12.8678 4.43512 13.0316L3.10255 13.4017C2.83647 13.4755 2.68068 13.7511 2.75456 14.0172C2.82845 14.2833 3.10404 14.4391 3.37012 14.3652L4.70269 13.9951C5.12405 13.8781 5.56872 13.8737 5.99233 13.9823L6.69038 14.1612C7.30563 14.3189 7.95218 14.3062 8.56076 14.1245L8.93083 14.014C9.33553 13.8931 9.76904 13.9113 10.1622 14.0655C10.7302 14.2882 11.354 14.3256 11.9445 14.1722L12.6968 13.9768C13.0754 13.8785 13.4756 13.9067 13.8366 14.0571C14.3835 14.285 14.9886 14.333 15.5645 14.1942L16.5506 13.9566C16.9402 13.8627 17.3465 13.8639 17.7355 13.9599L18.6589 14.1879C19.2202 14.3265 19.8071 14.3239 20.3671 14.1803L21.9149 13.7834Z" fill="white"/>
<path d="M4.8555 15.9298C4.92407 15.6623 5.1965 15.501 5.46399 15.5696L6.93789 15.9474C7.37735 16.06 7.83917 16.051 8.27387 15.9212L8.64394 15.8107C9.26267 15.6259 9.92544 15.6536 10.5266 15.8894C10.8981 16.0351 11.3061 16.0595 11.6923 15.9592L12.4447 15.7638C13.0344 15.6106 13.658 15.6546 14.2204 15.8889C14.5714 16.0352 14.9599 16.066 15.3295 15.9769L17.027 15.5679C17.2955 15.5032 17.5656 15.6684 17.6302 15.9368C17.6949 16.2053 17.5297 16.4754 17.2613 16.54L15.5638 16.9491C14.9878 17.0878 14.3827 17.0398 13.8358 16.812C13.4749 16.6616 13.0746 16.6334 12.6961 16.7317L11.9437 16.9271C11.3533 17.0805 10.7294 17.0431 10.1615 16.8204C9.76826 16.6662 9.33475 16.648 8.93005 16.7689L8.55998 16.8794C7.9514 17.0611 7.30485 17.0738 6.68961 16.9161L5.21571 16.5383C4.94821 16.4697 4.78694 16.1973 4.8555 15.9298Z" fill="white"/>
</svg>
