<svg width="24" height="24" viewBox="0 0 24 24" fill="none" xmlns="http://www.w3.org/2000/svg">
<circle cx="11.7324" cy="4.38647" r="1.38647" fill="white"/>
<path fill-rule="evenodd" clip-rule="evenodd" d="M17.4283 13.2675C17.4625 13.5102 17.4977 13.7597 17.5336 14.0142C17.8702 16.3967 18.2742 19.2219 18.5436 21.0967C18.5632 21.2334 18.6899 21.3283 18.8266 21.3086C18.9632 21.289 19.0581 21.1623 19.0385 21.0256C18.7691 19.151 18.3652 16.3262 18.0287 13.9443C17.996 13.713 17.964 13.4859 17.9328 13.2642C17.7755 13.2981 17.6065 13.3027 17.4283 13.2675ZM17.6081 10.9385C17.6518 11.2562 17.702 11.6172 17.7569 12.0109C17.7188 12.0089 17.6803 12.0024 17.6421 11.9911L17.2325 11.8703C17.1855 11.5329 17.1424 11.2224 17.1045 10.9463C17.0968 10.8906 17.0894 10.8363 17.0822 10.7834L17.6081 10.9385ZM17.5112 10.2269C17.4959 10.1126 17.4824 10.0106 17.4708 9.92204C17.4556 9.80558 17.444 9.71319 17.4362 9.64709C17.431 9.60315 17.4283 9.57721 17.427 9.5643C17.426 9.55481 17.4258 9.55237 17.4258 9.55501C17.4262 9.41694 17.3145 9.3047 17.1765 9.30432C17.0384 9.30394 16.9262 9.41556 16.9258 9.55364C16.9257 9.58571 16.9327 9.64689 16.9396 9.70579C16.9478 9.77485 16.9598 9.86955 16.975 9.98667C16.9783 10.0116 16.9817 10.0376 16.9852 10.0646L17.5112 10.2269Z" fill="white"/>
<path fill-rule="evenodd" clip-rule="evenodd" d="M11.7324 6.62878C12.0696 6.62878 12.3807 6.74001 12.6312 6.92776C12.762 7.00821 12.8801 7.11427 12.9775 7.2448L14.7969 9.68208L17.8277 10.5759C18.4899 10.7712 18.8683 11.4663 18.6731 12.1285C18.4778 12.7906 17.7827 13.1691 17.1205 12.9738L13.6906 11.9622L13.2914 11.8445L13.2324 11.7655V11.9565C13.2662 11.9835 13.2989 12.0124 13.3303 12.0434L16.3652 15.0328C16.5411 15.206 16.6617 15.4275 16.7119 15.6693L17.7978 20.9007C17.9381 21.5766 17.5039 22.2383 16.828 22.3786C16.152 22.519 15.4903 22.0847 15.35 21.4088L14.341 16.5481L11.9675 14.2102L11.9651 14.2258C11.933 14.2065 11.896 14.1942 11.8562 14.1911L11.4768 14.1612C10.742 14.1035 10.1222 13.5916 9.92662 12.881L9.74724 12.2293L9.76822 12.0953C9.73214 12.0802 9.69676 12.0638 9.66217 12.0461C9.63092 12.0153 9.592 11.9931 9.54955 11.982C9.12679 11.7167 8.84572 11.2464 8.84572 10.7105V8.53003C8.84572 7.7016 9.5173 7.03003 10.3457 7.03003C10.4584 7.03003 10.5683 7.04246 10.6739 7.06603C10.9452 6.79582 11.3193 6.62878 11.7324 6.62878ZM9.5704 13.3585L9.04856 16.6907L5.37482 19.7069C4.84125 20.1449 4.76382 20.9326 5.20188 21.4662C5.63993 21.9997 6.42759 22.0772 6.96116 21.6391L11.003 18.3208C11.2401 18.1261 11.3973 17.8511 11.4448 17.5481L11.8933 14.6838C11.8689 14.6895 11.8433 14.6916 11.817 14.6895L11.4376 14.6597C10.6165 14.5952 9.90711 14.0896 9.5704 13.3585Z" fill="white"/>
</svg>
