<svg width="24" height="24" viewBox="0 0 24 24" fill="none" xmlns="http://www.w3.org/2000/svg">
<circle cx="15.6869" cy="6.78538" r="1.25" fill="white"/>
<path d="M14.3754 5.52869H15.7695L14.7043 7.55378L13.9462 6.28517C13.747 5.95189 13.9871 5.52869 14.3754 5.52869Z" fill="white"/>
<path d="M18.0297 11.4651H14.0934V8.98989" stroke="white" stroke-width="2" stroke-linecap="round" stroke-linejoin="round"/>
<path d="M9.10337 9.26119L12.4936 12.8478V16.2625" stroke="white" stroke-width="2" stroke-linecap="round" stroke-linejoin="round"/>
<path d="M13.4232 8.84439H9.43171" stroke="white" stroke-width="3" stroke-linecap="round" stroke-linejoin="round"/>
<circle cx="7.47406" cy="15.5078" r="3.32443" stroke="white"/>
<path d="M15.2358 13.0032C14.9069 13.2903 14.6377 13.6394 14.4437 14.0305C14.2497 14.4216 14.1346 14.847 14.1051 15.2826C14.0755 15.7182 14.132 16.1553 14.2714 16.569C14.4107 16.9828 14.6302 17.365 14.9173 17.6939C15.2044 18.0228 15.5535 18.2919 15.9446 18.4859C16.3356 18.6799 16.7611 18.795 17.1967 18.8246C17.6323 18.8542 18.0694 18.7976 18.4831 18.6583C18.8968 18.5189 19.2791 18.2994 19.608 18.0123C19.9369 17.7253 20.206 17.3762 20.4 16.9851C20.594 16.594 20.7091 16.1685 20.7387 15.733C20.7682 15.2974 20.7117 14.8603 20.5724 14.4465C20.433 14.0328 20.2135 13.6506 19.9264 13.3217C19.7815 13.1556 19.6207 13.0048 19.4467 12.8712" stroke="white" stroke-linecap="round" stroke-linejoin="round"/>
</svg>
