<svg width="24" height="24" viewBox="0 0 24 24" fill="none" xmlns="http://www.w3.org/2000/svg">
<path fill-rule="evenodd" clip-rule="evenodd" d="M5.6405 7.349C6.19279 7.349 6.6405 7.79671 6.6405 8.349V11.6315C7.20489 11.722 7.71381 12.0867 7.96377 12.6478C9.11331 15.228 9.58224 15.7559 9.7102 15.8721C9.73469 15.8943 9.7584 15.917 9.78134 15.9403L12.676 13.8876C12.9909 13.6644 13.4061 13.6422 13.7429 13.8308L19.0188 16.7845C19.5007 17.0542 19.6727 17.6636 19.4029 18.1455C19.1331 18.6274 18.5237 18.7994 18.0418 18.5296L13.3174 15.8846L9.79289 18.3839C9.13903 19.0615 8.06047 19.1012 7.35825 18.464C6.61819 17.7925 5.89803 16.6115 4.76671 14.0721C4.62008 13.743 4.58327 13.3928 4.6405 13.0626V8.349C4.6405 7.79671 5.08822 7.349 5.6405 7.349Z" fill="white"/>
<mask id="path-2-inside-1_1199_42041" fill="white">
<path fill-rule="evenodd" clip-rule="evenodd" d="M7.89331 10.7064C8.90019 10.7064 9.71643 9.89018 9.71643 8.8833C9.71643 7.87642 8.90019 7.06018 7.89331 7.06018C7.41615 7.06018 6.98181 7.24349 6.65686 7.54352C6.84042 7.76108 6.95105 8.04218 6.95105 8.34912V10.4444C7.22602 10.6107 7.54848 10.7064 7.89331 10.7064Z"/>
</mask>
<path fill-rule="evenodd" clip-rule="evenodd" d="M7.89331 10.7064C8.90019 10.7064 9.71643 9.89018 9.71643 8.8833C9.71643 7.87642 8.90019 7.06018 7.89331 7.06018C7.41615 7.06018 6.98181 7.24349 6.65686 7.54352C6.84042 7.76108 6.95105 8.04218 6.95105 8.34912V10.4444C7.22602 10.6107 7.54848 10.7064 7.89331 10.7064Z" fill="white"/>
<path d="M6.65686 7.54352L5.97848 6.80881L5.27592 7.45751L5.89255 8.18837L6.65686 7.54352ZM6.95105 10.4444H5.95105V11.0082L6.43347 11.3L6.95105 10.4444ZM8.71643 8.8833C8.71643 9.3379 8.3479 9.70642 7.89331 9.70642V11.7064C9.45247 11.7064 10.7164 10.4425 10.7164 8.8833H8.71643ZM7.89331 8.06018C8.3479 8.06018 8.71643 8.4287 8.71643 8.8833H10.7164C10.7164 7.32413 9.45247 6.06018 7.89331 6.06018V8.06018ZM7.33524 8.27823C7.48275 8.14204 7.67734 8.06018 7.89331 8.06018V6.06018C7.15497 6.06018 6.48087 6.34494 5.97848 6.80881L7.33524 8.27823ZM5.89255 8.18837C5.92961 8.2323 5.95105 8.28691 5.95105 8.34912H7.95105C7.95105 7.79746 7.75123 7.28987 7.42117 6.89867L5.89255 8.18837ZM5.95105 8.34912V10.4444H7.95105V8.34912H5.95105ZM7.89331 9.70642C7.73602 9.70642 7.59187 9.66327 7.46862 9.58872L6.43347 11.3C6.86017 11.5581 7.36094 11.7064 7.89331 11.7064V9.70642Z" fill="white" mask="url(#path-2-inside-1_1199_42041)"/>
<path d="M9.95856 8.51184C12.8447 8.51184 13.6182 11.0721 13.6441 12.3522" stroke="white" stroke-width="0.5" stroke-linecap="round"/>
<path d="M9.95856 7.06018C14.2457 7.06018 15.3948 10.8632 15.4332 12.7647" stroke="white" stroke-width="0.5" stroke-linecap="round"/>
</svg>
