<svg width="24" height="24" viewBox="0 0 24 24" fill="none" xmlns="http://www.w3.org/2000/svg">
<circle cx="9.9242" cy="6.31262" r="0.945851" fill="white" stroke="white"/>
<path fill-rule="evenodd" clip-rule="evenodd" d="M9.43761 3.57227C9.66198 3.06761 10.253 2.84039 10.7576 3.06475L13.5136 4.28999C13.8746 4.45052 14.1073 4.80861 14.1073 5.20376V9.54501C14.1638 9.73887 14.2044 9.93255 14.2328 10.1244C14.2863 10.4847 14.2961 10.8315 14.3011 11.1078L14.3039 11.2724C14.3074 11.4928 14.3102 11.6695 14.3239 11.8554C14.3263 11.8878 14.3277 11.92 14.328 11.9521C14.3494 12.0076 14.3662 12.0658 14.3776 12.1262L15.8417 19.8349C15.9447 20.3775 15.5884 20.9009 15.0458 21.0039C14.5032 21.107 13.9799 20.7506 13.8768 20.2081L12.6364 13.6768L10.0749 20.3785C9.87777 20.8944 9.29972 21.1527 8.78383 20.9556C8.26794 20.7584 8.00957 20.1803 8.20675 19.6644L10.5192 13.6142C10.8219 13.69 11.1537 13.6486 11.4406 13.4724C12.0065 13.1249 12.1835 12.3844 11.836 11.8185L11.2957 10.9387C11.2901 10.7891 11.2811 10.6707 11.2653 10.5646C11.2301 10.3272 11.1693 10.1715 10.9574 9.97543C10.9426 9.96179 10.9282 9.94791 10.9141 9.93382L10.3879 10.315C10.1247 10.2808 9.84847 10.3332 9.60467 10.4829C9.33875 10.6462 9.1587 10.8963 9.07859 11.1743L8.6876 10.576C8.46864 10.241 8.55132 9.79305 8.87546 9.55828L10.5802 8.32355C10.6465 8.15537 10.7446 7.99643 10.8747 7.85573C11.2023 7.50148 11.6611 7.34101 12.1073 7.37993V5.85355L9.94513 4.89228C9.44048 4.66792 9.21325 4.07693 9.43761 3.57227Z" fill="white"/>
<path d="M11.7293 8.41741L9.31541 10.1658L10.7301 12.3304" stroke="white" stroke-width="2" stroke-linecap="round" stroke-linejoin="round"/>
</svg>
