<svg width="24" height="24" viewBox="0 0 24 24" fill="none" xmlns="http://www.w3.org/2000/svg">
<circle cx="14.0192" cy="4.9231" r="1.5" fill="white"/>
<path fill-rule="evenodd" clip-rule="evenodd" d="M12.122 6.6799C12.3715 6.59384 12.6319 6.61228 12.8553 6.71199L13.1271 6.81546C13.5113 6.96167 13.8613 7.18527 14.1555 7.47238L14.6159 7.92172C14.6418 7.94702 14.6661 7.97347 14.6888 8.00094L16.1774 9.3799L17.9079 7.97383C18.3366 7.62557 18.9664 7.69072 19.3146 8.11936C19.6629 8.54799 19.5977 9.1778 19.1691 9.52606L16.765 11.4794C16.3786 11.7933 15.8201 11.7752 15.4549 11.4369L14.239 10.3105L13.3522 12.207L16.7199 13.6535C16.9694 13.7606 17.1645 13.9646 17.2606 14.2185C17.3566 14.4725 17.3453 14.7545 17.2292 15L15.5764 18.4934C15.3402 18.9926 14.744 19.2058 14.2448 18.9696C13.7456 18.7334 13.5323 18.1373 13.7685 17.638L14.9779 15.0819L12.035 13.8179L12.0354 13.8167L11.803 13.7246L11.7612 13.708C10.9729 13.3958 10.5309 12.5697 10.6862 11.755L11.5278 9.00034L9.94942 9.54464L9.13266 11.6331C8.93152 12.1475 8.35149 12.4014 7.83714 12.2003C7.32279 11.9991 7.06888 11.4191 7.27003 10.9047L8.25513 8.38574C8.36193 8.11263 8.58323 7.90017 8.86045 7.80458L12.122 6.6799ZM10.2679 12.7833L8.91282 15.7144L5.15988 18.9302C4.74051 19.2896 4.69185 19.9209 5.05121 20.3402C5.41058 20.7596 6.04187 20.8083 6.46125 20.4489L10.5452 16.9494L11.7899 14.2572L11.6189 14.1895L11.577 14.1729C10.934 13.9182 10.4701 13.3975 10.2679 12.7833Z" fill="white"/>
</svg>
