<svg width="24" height="24" viewBox="0 0 24 24" fill="none" xmlns="http://www.w3.org/2000/svg">
<path d="M14 4.5C14 5.32843 13.3284 6 12.5 6C11.6716 6 11 5.32843 11 4.5C11 3.67157 11.6716 3 12.5 3C13.3284 3 14 3.67157 14 4.5Z" fill="white"/>
<path d="M15.4455 13.3321L12.9597 11.6748L12.9772 12.6867L15.3869 15.498L16.9488 20.1838C17.1235 20.7077 16.8403 21.2741 16.3164 21.4487C15.7924 21.6234 15.2261 21.3402 15.0514 20.8163L13.6134 16.5021L12.1651 14.8124C12.1582 14.8012 12.1504 14.7903 12.1416 14.78L10.5743 12.8974C10.3281 12.6017 10.2026 12.2241 10.2227 11.8398V11.8398L10.4484 9.4661L9.9032 10.0112L8.97038 13.7425C8.83643 14.2783 8.2935 14.6041 7.7577 14.4701C7.22191 14.3362 6.89615 13.7933 7.03009 13.2575L8.09727 8.98875L10.2931 6.79289C10.6241 6.46189 11.1294 6.41144 11.5136 6.64154L12.3047 7.04746C12.579 7.1353 12.8134 7.34034 12.9287 7.62861L13.8134 9.84023L16.5549 11.6679C17.0145 11.9743 17.1386 12.5952 16.8323 13.0547C16.5259 13.5142 15.9051 13.6384 15.4455 13.3321Z" fill="white"/>
<path d="M10.0228 13.0698L8.75674 15.2854L4.97013 17.652C4.5018 17.9447 4.35943 18.5617 4.65214 19.03C4.94485 19.4984 5.5618 19.6407 6.03013 19.348L10.2435 16.7147L11.4031 14.6854L10.0228 13.0698Z" fill="white"/>
</svg>
